<svg id="Layer_1" data-name="Layer 1" xmlns="http://www.w3.org/2000/svg" viewBox="0 0 38.1 25"><defs><style>.cls-1{fill:#fff;}.cls-2{fill:#fff200;}</style></defs><title>angel_1</title><path class="cls-1" d="M37.18,6.12a3.17,3.17,0,0,1,0,4.47,3,3,0,0,1-1,.67,4.66,4.66,0,0,1-2,6.2,6,6,0,1,1-10.07-2.73l8.6-8.61A3.17,3.17,0,0,1,37.18,6.12Z"/><path class="cls-1" d="M.93,6.12a3.15,3.15,0,0,0,0,4.47,3,3,0,0,0,1,.67,4.66,4.66,0,0,0,2,6.2A6,6,0,1,0,14,14.73L5.39,6.12A3.16,3.16,0,0,0,.93,6.12Z"/><path class="cls-2" d="M19.05,0C12.73,0,7.61,2,7.61,4.41s5.12,4.42,11.44,4.42,11.44-2,11.44-4.42S25.37,0,19.05,0Zm0,7.51c-4.43,0-8-1.39-8-3.1s3.59-3.09,8-3.09,8,1.38,8,3.09S23.48,7.51,19.05,7.51Z"/></svg>