<svg id="Layer_1" data-name="Layer 1" xmlns="http://www.w3.org/2000/svg" viewBox="0 0 24.5 28.09"><defs><style>.cls-1{fill:red;}.cls-2{fill:#fff;}</style></defs><title>devil</title><circle class="cls-1" cx="12.25" cy="15.84" r="12.25"/><path class="cls-1" d="M4.45,0A6,6,0,0,0,6,5.79L1.76,10a6,6,0,0,1,0-8.48A5.84,5.84,0,0,1,4.45,0Z"/><path class="cls-1" d="M19.75,0A6,6,0,0,1,18.2,5.79L22.44,10a6,6,0,0,0,0-8.48A5.84,5.84,0,0,0,19.75,0Z"/><path class="cls-2" d="M5.55,18.45A4.18,4.18,0,0,0,11,16.16L3.25,13A4.18,4.18,0,0,0,5.55,18.45Z"/><path class="cls-2" d="M19,18.45a4.18,4.18,0,0,1-5.44-2.29L21.25,13A4.18,4.18,0,0,1,19,18.45Z"/></svg>