<svg id="Layer_1" data-name="Layer 1" xmlns="http://www.w3.org/2000/svg" viewBox="0 0 25 33.23"><defs><style>.cls-1{fill:#fff;}</style></defs><title>fatigue</title><polygon class="cls-1" points="18.23 10.03 24.57 4.57 24.57 4.57 24.57 4.57 24.57 0 10.28 0 10.28 4.57 17.05 4.57 10.71 10.03 10.71 10.03 10.71 14.61 25 14.61 25 10.03 18.23 10.03"/><polygon class="cls-1" points="6.11 22.38 10.99 18.18 10.99 18.18 10.99 18.18 10.99 14.66 0 14.66 0 18.18 5.21 18.18 0.33 22.38 0.33 22.38 0.33 25.9 11.32 25.9 11.32 22.38 6.11 22.38"/><polygon class="cls-1" points="15.48 30.84 18.79 27.99 18.79 27.98 18.79 27.98 18.79 25.6 11.32 25.6 11.32 27.98 14.86 27.98 11.55 30.84 11.55 30.84 11.55 33.23 19.02 33.23 19.02 30.84 15.48 30.84"/></svg>