<?xml version="1.0" encoding="utf-8"?>
<!-- Generator: Adobe Illustrator 25.3.1, SVG Export Plug-In . SVG Version: 6.00 Build 0)  -->
<svg version="1.1" id="Layer_1" xmlns="http://www.w3.org/2000/svg" xmlns:xlink="http://www.w3.org/1999/xlink" x="0px" y="0px"
	 width="25px" height="19.3px" viewBox="0 0 25 19.3" style="enable-background:new 0 0 25 19.3;" xml:space="preserve">
<style type="text/css">
	.st0{fill:#00FF18;}
	.st1{filter:url(#Adobe_OpacityMaskFilter);}
	.st2{opacity:0.75;mask:url(#SVGID_1_);}
	.st3{fill:#FF0000;}
</style>
<g>
	<g>
		<path class="st0" d="M22.9,1.5c2.8,2.9,2.7,7.5-0.1,10.3l-10.3,7.5L2.2,11.8C-0.7,9-0.7,4.4,2.1,1.5c2.9-2.9,7.5-1.1,10.4,1.8l0,0
			C15.4,0.4,20.1-1.5,22.9,1.5z"/>
	</g>
	<defs>
		<filter id="Adobe_OpacityMaskFilter" filterUnits="userSpaceOnUse" x="0" y="0" width="25" height="19.3">
			
				<feColorMatrix  type="matrix" values="-1 0 0 0 1  0 -1 0 0 1  0 0 -1 0 1  0 0 0 1 0" color-interpolation-filters="sRGB" result="source"/>
		</filter>
	</defs>
	<mask maskUnits="userSpaceOnUse" x="0" y="0" width="25" height="19.3" id="SVGID_1_">
		<g class="st1">
			<image style="overflow:visible;" width="29" height="24" xlink:href="17B364E4.jpg"  transform="matrix(1 0 0 1 -2 -2.7)">
			</image>
		</g>
	</mask>
	<g class="st2">
		<path class="st3" d="M22.9,1.5c2.8,2.9,2.7,7.5-0.1,10.3l-10.3,7.5L2.2,11.8C-0.7,9-0.7,4.4,2.1,1.5c2.9-2.9,7.5-1.1,10.4,1.8l0,0
			C15.4,0.4,20.1-1.5,22.9,1.5z"/>
	</g>
</g>
</svg>
