<?xml version="1.0" encoding="utf-8"?>
<!-- Generator: Adobe Illustrator 25.3.1, SVG Export Plug-In . SVG Version: 6.00 Build 0)  -->
<svg version="1.1" id="Layer_1" xmlns="http://www.w3.org/2000/svg" xmlns:xlink="http://www.w3.org/1999/xlink" x="0px" y="0px"
	 viewBox="0 0 25 19.3" style="enable-background:new 0 0 25 19.3;" xml:space="preserve">
<style type="text/css">
	.st0{fill:#00FF2A;}
	.st1{opacity:0.75;}
</style>
<g>
	<g>
		<path class="st0" d="M22.9,1.5c2.8,2.9,2.7,7.5-0.1,10.3l-10.3,7.5L2.2,11.8C-0.7,9-0.7,4.4,2.1,1.5C5-1.4,9.6,0.4,12.5,3.3l0,0
			C15.4,0.4,20.1-1.5,22.9,1.5z"/>
	</g>
	<g class="st1">
		<path class="st0" d="M22.9,1.5c2.8,2.9,2.7,7.5-0.1,10.3l-10.3,7.5L2.2,11.8C-0.7,9-0.7,4.4,2.1,1.5C5-1.4,9.6,0.4,12.5,3.3l0,0
			C15.4,0.4,20.1-1.5,22.9,1.5z"/>
	</g>
</g>
</svg>
