<svg id="Layer_1" data-name="Layer 1" xmlns="http://www.w3.org/2000/svg" viewBox="0 0 25 24.99"><defs><style>.cls-1{fill:#d3d3d3;}.cls-2{fill:#b7767e;}.cls-3{fill:#72490e;}</style></defs><title>hunger</title><path class="cls-1" d="M3,22A1.83,1.83,0,0,1,.54,19.29a1.93,1.93,0,0,1,2.66-.07l4.56-4.56a10.82,10.82,0,0,0,1.18,1.4,10.65,10.65,0,0,0,1.39,1.17L5.7,21.87A1.83,1.83,0,1,1,3,22"/><ellipse class="cls-2" cx="19.83" cy="5.17" rx="3.62" ry="6.34" transform="translate(2.16 15.54) rotate(-45)"/><path class="cls-3" d="M24.32,9.65,16,18c-1.16,1.16-3.5.79-5.66-.75a10.65,10.65,0,0,1-1.39-1.17,10.82,10.82,0,0,1-1.18-1.4C6.23,12.5,5.86,10.17,7,9L15.35.68c-1.42,1.42-.56,4.57,1.92,7.05S22.9,11.07,24.32,9.65Z"/></svg>