<?xml version="1.0" encoding="utf-8"?>
<!-- Generator: Adobe Illustrator 22.1.0, SVG Export Plug-In . SVG Version: 6.00 Build 0)  -->
<svg version="1.1" id="Layer_1" xmlns="http://www.w3.org/2000/svg" xmlns:xlink="http://www.w3.org/1999/xlink" x="0px" y="0px"
	 viewBox="0 0 130 150" style="enable-background:new 0 0 130 150;" xml:space="preserve">
<style type="text/css">
	.st0{fill:#F2665C;}
	.st1{fill:none;}
	.st2{fill:#A3A1A8;}
	.st3{fill:#A67674;}
	.st4{fill:#FEF38A;}
	.st5{fill:#7E6B7D;}
</style>
<g>
	<g>
		<path class="st0" d="M47.5,46.6c0,4,1.4,7.8,3.7,10.7c-0.8,0.8-1.6,1.6-2.3,2.5c-2.8-3.5-4.5-8-4.5-12.8c0-5.2,2-10,5.2-13.6
			c0.6,0.7,1.3,1.4,2,2C49.1,38.4,47.5,42.3,47.5,46.6z"/>
		<path class="st0" d="M82,35.4l-2.3,1.8c-0.4-0.6-0.8-1.2-1.3-1.8c0.7-0.6,1.4-1.3,2-2C81,34,81.5,34.7,82,35.4z"/>
		<path class="st0" d="M84.6,40.6L81.8,42c-0.1-0.5-0.3-1-0.5-1.4c-0.2-0.5-0.4-0.9-0.6-1.4c-0.1-0.2-0.2-0.4-0.3-0.5
			c-0.1-0.1-0.1-0.3-0.2-0.4c-0.2-0.4-0.4-0.7-0.6-1l2.3-1.8C83.1,37,84,38.8,84.6,40.6z"/>
		<path class="st0" d="M85.5,44.7L82.4,45c-0.1-1-0.3-2.1-0.5-3l2.7-1.3C85,41.9,85.3,43.3,85.5,44.7z"/>
		<path class="st0" d="M85.6,47c0,0.4,0,0.7,0,1.1l-3.2,0c0-0.5,0.1-1,0.1-1.5c0-0.5,0-1.1-0.1-1.6l3.1-0.3
			C85.5,45.5,85.6,46.3,85.6,47z"/>
		<path class="st0" d="M85.6,48.1c-0.1,1.2-0.2,2.3-0.5,3.4L81.9,51c0.1-0.2,0.1-0.5,0.2-0.7c0.1-0.4,0.2-0.9,0.2-1.4
			c0-0.3,0.1-0.6,0.1-0.8L85.6,48.1z"/>
		<path class="st1" d="M82.3,49c-0.1,0.5-0.1,0.9-0.2,1.4C82.2,49.9,82.2,49.4,82.3,49z"/>
		<path class="st0" d="M85.1,51.5c-0.2,1.1-0.6,2.2-1,3.3l-2.9-1.5c0.1-0.1,0.1-0.3,0.2-0.4c0,0,0,0,0-0.1c0.1-0.2,0.1-0.3,0.2-0.5
			c0.1-0.2,0.1-0.4,0.2-0.7c0.1-0.2,0.1-0.5,0.2-0.7L85.1,51.5z"/>
		<path class="st0" d="M84.1,54.8c-0.4,0.9-0.8,1.7-1.2,2.5L80,55.6c0.1-0.2,0.2-0.4,0.4-0.6c0.1-0.2,0.2-0.3,0.3-0.5
			c0.1-0.2,0.2-0.4,0.3-0.6c0.1-0.2,0.2-0.4,0.3-0.6L84.1,54.8z"/>
		<path class="st0" d="M82.8,57.4c-0.5,0.9-1.1,1.7-1.7,2.5c-0.7-0.9-1.5-1.7-2.3-2.5c0.2-0.2,0.3-0.4,0.4-0.6c0,0,0,0,0,0
			c0.1-0.2,0.2-0.3,0.4-0.5c0.1-0.2,0.3-0.4,0.4-0.6L82.8,57.4z"/>
		<path class="st2" d="M62.8,40.2v12c-4.4,0.5-8.5,2.3-11.6,5.2c-2.3-3-3.7-6.7-3.7-10.7c0-4.3,1.5-8.2,4.1-11.2
			C54.7,38,58.6,39.8,62.8,40.2z"/>
		<path class="st2" d="M82.5,46.6c0,0.5,0,1-0.1,1.5c0,0.3-0.1,0.6-0.1,0.8c-0.1,0.5-0.1,0.9-0.2,1.4C82,50.5,82,50.8,81.9,51
			c-0.1,0.2-0.1,0.5-0.2,0.7c-0.1,0.2-0.1,0.4-0.2,0.7c-0.1,0.2-0.1,0.3-0.2,0.5c0,0,0,0,0,0.1c-0.1,0.1-0.1,0.3-0.2,0.4
			c-0.1,0.2-0.2,0.4-0.3,0.6c-0.1,0.2-0.2,0.4-0.3,0.6c-0.1,0.2-0.2,0.3-0.3,0.5c-0.1,0.2-0.2,0.4-0.4,0.6c-0.1,0.2-0.2,0.4-0.4,0.6
			c-0.1,0.2-0.2,0.4-0.4,0.5c0,0,0,0,0,0c-0.1,0.2-0.3,0.4-0.4,0.6c-3.1-2.8-7.2-4.7-11.6-5.2v-12c4.3-0.4,8.1-2.2,11.2-4.8
			c0.5,0.6,0.9,1.2,1.3,1.8c0.2,0.3,0.4,0.7,0.6,1c0.1,0.1,0.2,0.3,0.2,0.4c0.1,0.2,0.2,0.3,0.3,0.5c0.2,0.4,0.4,0.9,0.6,1.4
			c0.2,0.5,0.3,1,0.5,1.4c0.3,1,0.5,2,0.5,3C82.4,45.6,82.5,46.1,82.5,46.6z"/>
		<path class="st1" d="M82.3,49c-0.1,0.5-0.1,0.9-0.2,1.4C82.2,49.9,82.2,49.4,82.3,49z"/>
		<rect x="62.8" y="37.9" class="st3" width="4.3" height="75.6"/>
		<rect x="62.1" y="113.5" class="st4" width="5.8" height="3.1"/>
		<line class="st1" x1="62.8" y1="111.3" x2="65" y2="111.3"/>
		<line class="st1" x1="62.8" y1="88.2" x2="65" y2="88.2"/>
		<line class="st1" x1="62.8" y1="86.1" x2="65" y2="86.1"/>
		<line class="st1" x1="62.8" y1="84.1" x2="65" y2="84.1"/>
		<line class="st1" x1="62.8" y1="82" x2="65" y2="82"/>
		<line class="st1" x1="62.8" y1="79.9" x2="65" y2="79.9"/>
		<line class="st1" x1="62.8" y1="77.8" x2="65" y2="77.8"/>
		<line class="st1" x1="62.8" y1="75.7" x2="65" y2="75.7"/>
		<line class="st1" x1="62.8" y1="73.6" x2="65" y2="73.6"/>
		<line class="st1" x1="62.8" y1="71.5" x2="65" y2="71.5"/>
		<line class="st1" x1="62.8" y1="69.4" x2="65" y2="69.4"/>
		<line class="st1" x1="62.8" y1="67.4" x2="65" y2="67.4"/>
		<line class="st1" x1="84.1" y1="54.8" x2="84.1" y2="54.8"/>
		<line class="st1" x1="80.8" y1="39.2" x2="83.2" y2="37.9"/>
		<line class="st1" x1="82" y1="35.4" x2="82" y2="35.4"/>
		<line class="st1" x1="62.8" y1="41.9" x2="59.3" y2="41.9"/>
		<line class="st1" x1="62.8" y1="43.6" x2="59.3" y2="43.6"/>
		<line class="st1" x1="62.8" y1="45.4" x2="59.3" y2="45.4"/>
		<line class="st1" x1="62.8" y1="47.1" x2="59.3" y2="47.1"/>
		<line class="st1" x1="62.8" y1="48.9" x2="59.3" y2="48.9"/>
		<line class="st1" x1="62.8" y1="50.6" x2="59.3" y2="50.6"/>
	</g>
	<g>
		<g>
			<path class="st4" d="M49.8,88.5c-0.3,0.3-0.5,0.8-0.5,1.2c0,0.5,0.2,0.9,0.5,1.2l10.4,10.4c0.7,0.7,1.8,0.7,2.5,0s0.7-1.8,0-2.5
				L52.2,88.5C51.6,87.8,50.4,87.8,49.8,88.5z"/>
			
				<rect x="42.7" y="103.2" transform="matrix(0.7071 -0.7071 0.7071 0.7071 -62.4158 62.6613)" class="st4" width="3.5" height="7"/>
			<polygon class="st2" points="85.8,65.2 57.5,93.6 60,96.1 85.8,70.3 			"/>
			<polygon class="st5" points="55.6,90.5 55,91.1 57.5,93.6 60.6,90.5 			"/>
			<polygon class="st5" points="57.7,88.4 55.6,90.5 60.6,90.5 62.7,88.4 			"/>
			<polygon class="st5" points="59.8,86.3 57.7,88.4 62.7,88.4 64.8,86.3 			"/>
			<polygon class="st5" points="61.9,84.2 59.8,86.3 64.8,86.3 66.9,84.2 			"/>
			<polygon class="st5" points="64,82.1 61.9,84.2 66.9,84.2 69,82.1 			"/>
			<polygon class="st5" points="66.1,80.1 64,82.1 69,82.1 71.1,80 			"/>
			<polygon class="st5" points="68.2,78 66.1,80.1 71.1,80 73.2,77.9 			"/>
			<polygon class="st5" points="70.3,75.9 68.2,78 73.2,77.9 75.2,75.8 			"/>
			<polygon class="st5" points="72.4,73.8 70.3,75.9 75.2,75.8 77.3,73.7 			"/>
			<polygon class="st5" points="74.5,71.7 72.4,73.8 77.3,73.7 79.4,71.6 			"/>
			<polygon class="st5" points="76.6,69.6 74.5,71.7 79.4,71.6 81.5,69.5 			"/>
			<polygon class="st5" points="78.7,67.5 76.6,69.6 81.5,69.5 83.6,67.4 			"/>
			<polygon class="st5" points="80.8,65.3 78.7,67.5 83.6,67.4 85.8,65.2 			"/>
			<line class="st1" x1="55.4" y1="99.5" x2="53.5" y2="97.6"/>
			<line class="st1" x1="54.1" y1="100.7" x2="52.3" y2="98.8"/>
			<line class="st1" x1="52.9" y1="101.9" x2="51.1" y2="100"/>
			<line class="st1" x1="51.7" y1="103.1" x2="49.8" y2="101.3"/>
			<line class="st1" x1="50.5" y1="104.3" x2="48.6" y2="102.5"/>
			
				<rect x="43.8" y="98.2" transform="matrix(0.7071 -0.7071 0.7071 0.7071 -56.5632 65.0855)" class="st3" width="13" height="5.3"/>
		</g>
		<g>
			<path class="st4" d="M80.2,88.5c0.3,0.3,0.5,0.8,0.5,1.2c0,0.5-0.2,0.9-0.5,1.2l-10.4,10.4c-0.7,0.7-1.8,0.7-2.5,0
				s-0.7-1.8,0-2.5l10.4-10.4C78.4,87.8,79.6,87.8,80.2,88.5z"/>
			
				<rect x="82.1" y="104.9" transform="matrix(0.7071 -0.7071 0.7071 0.7071 -50.3667 91.7503)" class="st4" width="7" height="3.5"/>
			<polygon class="st2" points="44.2,65.2 72.5,93.6 70,96.1 44.2,70.3 			"/>
			<polygon class="st5" points="74.4,90.5 75,91.1 72.5,93.6 69.4,90.5 			"/>
			<polygon class="st5" points="72.3,88.4 74.4,90.5 69.4,90.5 67.3,88.4 			"/>
			<polygon class="st5" points="70.2,86.3 72.3,88.4 67.3,88.4 65.2,86.3 			"/>
			<polygon class="st5" points="68.1,84.2 70.2,86.3 65.2,86.3 63.1,84.2 			"/>
			<polygon class="st5" points="66,82.1 68.1,84.2 63.1,84.2 61,82.1 			"/>
			<polygon class="st5" points="63.9,80.1 66,82.1 61,82.1 58.9,80 			"/>
			<polygon class="st5" points="61.8,78 63.9,80.1 58.9,80 56.8,77.9 			"/>
			<polygon class="st5" points="59.7,75.9 61.8,78 56.8,77.9 54.8,75.8 			"/>
			<polygon class="st5" points="57.6,73.8 59.7,75.9 54.8,75.8 52.7,73.7 			"/>
			<polygon class="st5" points="55.5,71.7 57.6,73.8 52.7,73.7 50.6,71.6 			"/>
			<polygon class="st5" points="53.4,69.6 55.5,71.7 50.6,71.6 48.5,69.5 			"/>
			<polygon class="st5" points="51.3,67.5 53.4,69.6 48.5,69.5 46.4,67.4 			"/>
			<polygon class="st5" points="49.2,65.3 51.3,67.5 46.4,67.4 44.2,65.2 			"/>
			<line class="st1" x1="74.6" y1="99.5" x2="76.5" y2="97.6"/>
			<line class="st1" x1="75.9" y1="100.7" x2="77.7" y2="98.8"/>
			<line class="st1" x1="77.1" y1="101.9" x2="78.9" y2="100"/>
			<line class="st1" x1="78.3" y1="103.1" x2="80.2" y2="101.3"/>
			<line class="st1" x1="79.5" y1="104.3" x2="81.4" y2="102.5"/>
			
				<rect x="77.1" y="94.3" transform="matrix(0.7071 -0.7071 0.7071 0.7071 -47.9425 85.8977)" class="st3" width="5.3" height="13"/>
		</g>
	</g>
</g>
</svg>
