<?xml version="1.0" encoding="utf-8"?>
<!-- Generator: Adobe Illustrator 22.1.0, SVG Export Plug-In . SVG Version: 6.00 Build 0)  -->
<svg version="1.1" id="Layer_1" xmlns="http://www.w3.org/2000/svg" xmlns:xlink="http://www.w3.org/1999/xlink" x="0px" y="0px"
	 viewBox="0 0 150 150" style="enable-background:new 0 0 150 150;" xml:space="preserve">
<style type="text/css">
	.st0{fill:#A3A1A8;stroke:#7E6B7D;stroke-miterlimit:10;}
</style>
<g>
	<path class="st0" d="M74.6,2.3C68.8,2.3,64.1,6.9,64,12.7c0,2.5,0.8,4.8,2.2,6.6l0,1.1c0,1.5,1.2,2.7,2.7,2.7l10.9,0.1
		c1.5,0,2.7-1.2,2.7-2.7l0-1.1c1.5-1.8,2.3-4,2.4-6.5C85,7.1,80.3,2.4,74.6,2.3z M69.2,13.6c-1.4,0-2.6-1.2-2.6-2.6
		c0-1.4,1.2-2.6,2.6-2.6c1.4,0,2.6,1.2,2.6,2.6C71.8,12.5,70.6,13.7,69.2,13.6z M74.5,15.7c-0.7,0-1.2-0.6-1.2-1.2l0.4-0.8l0.9-2.2
		l0.9,2.2l0.3,0.8C75.7,15.1,75.1,15.7,74.5,15.7z M80,13.7c-1.4,0-2.6-1.2-2.6-2.6s1.2-2.6,2.6-2.6c1.4,0,2.6,1.2,2.6,2.6
		C82.6,12.6,81.5,13.8,80,13.7z"/>
	<g>
		<line class="st0" x1="69.3" y1="19.7" x2="69.2" y2="23.2"/>
		<line class="st0" x1="71.8" y1="19.7" x2="71.8" y2="23.2"/>
		<line class="st0" x1="74.4" y1="19.8" x2="74.4" y2="23.2"/>
		<line class="st0" x1="77" y1="19.8" x2="77" y2="23.2"/>
		<line class="st0" x1="79.6" y1="19.8" x2="79.6" y2="23.3"/>
	</g>
</g>
</svg>
