<?xml version="1.0" encoding="utf-8"?>
<!-- Generator: Adobe Illustrator 25.0.1, SVG Export Plug-In . SVG Version: 6.00 Build 0)  -->
<svg version="1.1" id="Layer_1" xmlns="http://www.w3.org/2000/svg" xmlns:xlink="http://www.w3.org/1999/xlink" x="0px" y="0px"
	 width="64px" height="64px" viewBox="0 0 64 64" style="enable-background:new 0 0 64 64;" xml:space="preserve">
<style type="text/css">
	.st0{fill:#FFFFFF;}
</style>
<g>
	<path class="st0" d="M32.6,34.2h-1.2c-3,0-5.5-2.5-5.5-5.5v-19c0-3,2.5-5.5,5.5-5.5h1.2c3,0,5.5,2.5,5.5,5.5v19
		C38.1,31.7,35.6,34.2,32.6,34.2z"/>
	<path class="st0" d="M48.9,25.6c0,0.1,0,0.2,0,0.2c-0.1,7.9-5.7,14.6-13.1,16.2v10h3.2c1.1,0,2,0.4,2.7,1.1
		c0.7,0.7,1.1,1.6,1.1,2.7c0,2.1-1.7,3.8-3.8,3.8H25.1c-1.1,0-2-0.4-2.7-1.1c-0.7-0.7-1.1-1.6-1.1-2.7c0-2.1,1.7-3.8,3.8-3.8h3.2
		v-10c-7.4-1.7-13-8.3-13.1-16.2v-0.3c0-1.2,1-2.2,2.2-2.2c1.2,0,2.3,1,2.3,2.2C19.6,32.4,25.2,38,32,38c6.8,0,12.4-5.5,12.4-12.4
		c0-1.2,1-2.2,2.3-2.2C47.9,23.4,48.9,24.4,48.9,25.6z"/>
</g>
</svg>
