<svg id="Layer_1" data-name="Layer 1" xmlns="http://www.w3.org/2000/svg" viewBox="0 0 24.4 25"><defs><style>.cls-1{fill:#5b5b5b;}.cls-2{fill:none;stroke:#fff;stroke-linecap:round;stroke-miterlimit:10;stroke-width:1.41px;}</style></defs><title>weight</title><path class="cls-1" d="M19.38,5.85v10h-4v-10h0a2.89,2.89,0,0,0-3-2.39,2.89,2.89,0,0,0-3,2.39h0v10h-4v-10C5.57,2.6,8.64,0,12.4,0S19.23,2.6,19.38,5.85Z"/><path class="cls-1" d="M20.74,7.94H3.66L0,23a1.6,1.6,0,0,0,1.55,2H22.81a1.6,1.6,0,0,0,1.55-2Z"/><line class="cls-2" x1="5.54" y1="14.68" x2="10.04" y2="19.18"/><line class="cls-2" x1="10.04" y1="14.68" x2="5.54" y2="19.18"/><line class="cls-2" x1="14.36" y1="14.68" x2="18.86" y2="19.18"/><line class="cls-2" x1="18.86" y1="14.68" x2="14.36" y2="19.18"/></svg>